<svg xmlns="http://www.w3.org/2000/svg" viewBox="0 0 336.02 64.61"><g id="レイヤー_2" data-name="レイヤー 2"><g id="text"><path d="M0,61.83Q5.15,61.29,6.67,60t1.52-6.45V12.71c0-3.25-.5-5.39-1.5-6.39S3.46,4.7,0,4.46V2.76H26.3v1.7c-3.43.18-5.72.73-6.89,1.66s-1.75,2.92-1.75,6V56.22a4.65,4.65,0,0,0,.52,2.4,3,3,0,0,0,2.3,1.1c.7.09,1.44.15,2.21.18s2.23,0,4.35,0c8.29,0,12.76-.67,15.68-2s5.74-4.78,8.47-10.31h2.37L49,63.53H0Z"/><path d="M56.73,62.28C60,62,62,61.43,62.87,60.64s1.28-2.94,1.28-6.44V32.81a13.53,13.53,0,0,0-.41-4,2.76,2.76,0,0,0-2.87-1.84,5.33,5.33,0,0,0-1,.09c-.32.06-1.23.3-2.75.72V26.35l2-.63q8-2.55,11.1-3.86a5.75,5.75,0,0,1,1.64-.53,2.36,2.36,0,0,1,.09.67V54.2q0,5.11,1.25,6.42c.84.86,2.72,1.42,5.67,1.66v1.25H56.73ZM63.8,7.07a4.75,4.75,0,0,1,3.53-1.46A4.84,4.84,0,0,1,70.84,7a4.69,4.69,0,0,1,1.46,3.49A4.62,4.62,0,0,1,70.84,14a5,5,0,0,1-7,0,4.67,4.67,0,0,1-1.44-3.45A4.73,4.73,0,0,1,63.8,7.07Z"/><path d="M84.2,62.28q4.83-.22,6.35-1.78T92.08,54V25.18H84.3v-3h7.78a32.2,32.2,0,0,1,2-12Q97.78.83,107.76.83a15.92,15.92,0,0,1,7.18,1.57Q118.1,4,118.11,6.61A3.81,3.81,0,0,1,117,9.26a3.58,3.58,0,0,1-4.89.38,12.92,12.92,0,0,1-2.26-2.76l-.77-1.16a7,7,0,0,0-1.5-1.6,3.91,3.91,0,0,0-2.4-.65,4.61,4.61,0,0,0-4.66,3.37,13.34,13.34,0,0,0-.68,4.71V22.18h11.33v3H99.86V54q0,5.07,1.39,6.48t7.26,1.82v1.25H84.2Z"/><path d="M145.45,25.83q4.81,4.38,4.82,12.4H121.38q.45,10.4,4.77,15.13a13.43,13.43,0,0,0,10.24,4.74,13.05,13.05,0,0,0,8.06-2.46,24.77,24.77,0,0,0,6.05-7l1.59.54a25.56,25.56,0,0,1-7,10.56,17.59,17.59,0,0,1-12.54,4.85q-8.55,0-13.22-6.37a24.19,24.19,0,0,1-4.66-14.67A23.63,23.63,0,0,1,120.1,28a17.43,17.43,0,0,1,14.11-6.55A16.24,16.24,0,0,1,145.45,25.83Zm-21.8,3.43a17.62,17.62,0,0,0-2.09,6.1h19.2A18.32,18.32,0,0,0,139,28.68c-1.49-2.63-4-3.95-7.46-3.95A8.72,8.72,0,0,0,123.65,29.26Z"/><path d="M166.93,2.76v1.7A15.61,15.61,0,0,0,163,5a2.81,2.81,0,0,0-2.09,2.79,6,6,0,0,0,.25,1.74c.17.57.42,1.31.75,2.2l13.48,34.54,9.85-25.74L180.85,9.22a7,7,0,0,0-3.69-4.09,12.41,12.41,0,0,0-4.41-.67V2.76H197.7v1.7a18.46,18.46,0,0,0-4.82.49,3,3,0,0,0-2.09,3.14A5.05,5.05,0,0,0,191,9.51c.12.4.42,1.23.91,2.49l13.47,34.44L217,15.27a26,26,0,0,0,1.36-4.71,9.64,9.64,0,0,0,.23-1.88,3.56,3.56,0,0,0-2.45-3.55,12.29,12.29,0,0,0-4.1-.67V2.76h18.5v1.7a11.1,11.1,0,0,0-3.82,1.12,8,8,0,0,0-3.55,4.5l-9.76,27.38L209.66,48l-5.91,16.58h-1.44l-4.07-10.52L187.45,25.8,173.13,64.61h-1.4l-6.95-19L156.92,24q-4.86-13.3-6.79-16.33a7.14,7.14,0,0,0-6-3.25V2.76Z"/><path d="M253.34,25.83q4.83,4.38,4.83,12.4h-28.9q.47,10.4,4.78,15.13a13.41,13.41,0,0,0,10.24,4.74,13,13,0,0,0,8.05-2.46,24.63,24.63,0,0,0,6.06-7l1.59.54a25.58,25.58,0,0,1-7,10.56,17.55,17.55,0,0,1-12.53,4.85q-8.57,0-13.22-6.37a24.2,24.2,0,0,1-4.67-14.67A23.63,23.63,0,0,1,228,28a17.42,17.42,0,0,1,14.1-6.55A16.22,16.22,0,0,1,253.34,25.83Zm-21.79,3.43a17.83,17.83,0,0,0-2.1,6.1h19.21a18.53,18.53,0,0,0-1.73-6.68q-2.24-3.94-7.46-3.95A8.72,8.72,0,0,0,231.55,29.26Z"/><path d="M305.08,62.05c2.79-.24,4.64-.72,5.55-1.46S312,58.3,312,55.91V35.68a16.89,16.89,0,0,0-.85-6.35,3.06,3.06,0,0,0-3.07-1.9,7.76,7.76,0,0,0-1.2.11c-.5.07-1,.17-1.57.29V26.35l5.3-1.84c1.82-.63,3.07-1.08,3.77-1.35,1.51-.56,3.07-1.21,4.67-1.92.21,0,.34.07.39.22a4.54,4.54,0,0,1,.06.94v7.36a34.87,34.87,0,0,1,5.64-6.24,8.79,8.79,0,0,1,5.64-2.24,5.3,5.3,0,0,1,3.78,1.37,4.8,4.8,0,0,1,.35,6.52,3.6,3.6,0,0,1-2.8,1.26,5.26,5.26,0,0,1-3.48-1.57,4.94,4.94,0,0,0-2.75-1.57c-1.07,0-2.37.85-3.92,2.53a7.73,7.73,0,0,0-2.32,5.23V55.28q0,3.86,1.82,5.36t6.05,1.41v1.48H305.08Z"/><path d="M303.16,58.75a11.27,11.27,0,0,1-1.91,2.91,7.79,7.79,0,0,1-2.77,2,8.79,8.79,0,0,1-3.49.67,9,9,0,0,1-5.48-1.78q-2.42-1.78-2.41-6.26l-.18-.09A21.34,21.34,0,0,1,285,58.75a17,17,0,0,1-2.9,2.68,14.84,14.84,0,0,1-3.72,2,12.94,12.94,0,0,1-4.49.76,11.28,11.28,0,0,1-2.95-.41,7.07,7.07,0,0,1-2.72-1.43,7.72,7.72,0,0,1-2-2.63,9,9,0,0,1-.77-3.94,7.27,7.27,0,0,1,2-4.83,22.71,22.71,0,0,1,5-4.2c2-1.25,3.76-2.32,5.31-3.21s2.88-1.66,4-2.29,2.16-1.16,3-1.6,1.62-.85,2.22-1.21V29.25a2.78,2.78,0,0,0-.32-.85A4.84,4.84,0,0,0,285.7,27a7.55,7.55,0,0,0-2.13-1.3,9.09,9.09,0,0,0-3.54-.58,8.56,8.56,0,0,0-2.86.49,10.36,10.36,0,0,0-2.49,1.25A9.26,9.26,0,0,0,273,28.4a2.23,2.23,0,0,0-.63,1.3v4A2.8,2.8,0,0,1,271,36a4.69,4.69,0,0,1-2.85,1,3.43,3.43,0,0,1-2.5-1,3.23,3.23,0,0,1-1-2.37,3.71,3.71,0,0,1,.54-2A7.18,7.18,0,0,1,266.51,30a10.3,10.3,0,0,1,1.77-1.25q1-.54,1.68-1c1.57-.89,3.18-1.76,4.81-2.59S278,23.59,279.44,23a42.52,42.52,0,0,1,4.08-1.44,11.74,11.74,0,0,1,3-.53,8.76,8.76,0,0,1,4.44,1.2,7.45,7.45,0,0,1,3,3,5.39,5.39,0,0,1,.45,2.19c.06,1,.09,2.07.09,3.08,0,2.15,0,4.09-.05,5.81s0,3.4,0,5,0,3.26-.05,5,0,3.56,0,5.59q0,4,1.4,5.32A4.63,4.63,0,0,0,299,58.48a4.69,4.69,0,0,0,3.09-.85,4.23,4.23,0,0,0,1.36-2.19H304A9.2,9.2,0,0,1,303.16,58.75ZM287.1,39.89A35.79,35.79,0,0,1,283,42.35q-2.44,1.29-4.76,2.81a21.48,21.48,0,0,0-4,3.36,6,6,0,0,0-1.68,4.15,6.27,6.27,0,0,0,1.63,4.2,5.36,5.36,0,0,0,4.27,1.88,15,15,0,0,0,4.17-.53A8,8,0,0,0,286,56.16a3.22,3.22,0,0,0,1.09-2.5Z"/><path d="M255.41,6.81v6.08h-2V6.81a1.94,1.94,0,1,0-3.83,0v6.08h-2V6.81a1.94,1.94,0,1,0-3.82,0v6.08h-2V2.77h1.46l.45,1a3.29,3.29,0,0,1,5.29.45,3.82,3.82,0,0,1,3-1.58C253.84,2.65,255.41,4.23,255.41,6.81Z"/><path d="M277.37,2.77v9.67c0,2.47-1.8,4.27-4.61,4.27a4.26,4.26,0,0,1-4.39-3.15h2a2.64,2.64,0,0,0,4.94-1.12v-1a3.66,3.66,0,0,1-2.81,1.13,4.79,4.79,0,0,1-4.61-5,4.79,4.79,0,0,1,4.61-4.95,3.78,3.78,0,0,1,2.93,1.13l.45-1Zm-1.8,4.83a2.82,2.82,0,1,0-5.62,0,2.82,2.82,0,1,0,5.62,0Z"/><path d="M295,4.68h-4.84V2.77h7.31V4.56L292.64,11h5.06v1.91h-7.54v-1.8Z"/><path d="M299.87,1.24a1.24,1.24,0,1,1,2.47,0,1.24,1.24,0,0,1-2.47,0Zm2.25,11.65h-2V3.77h2Z"/><path d="M313.64,7v5.85h-2V7a2.42,2.42,0,1,0-4.83,0v5.85h-2V2.77h1.46l.45,1a3.78,3.78,0,0,1,2.93-1.13A4.12,4.12,0,0,1,313.64,7Z"/><path d="M324.57,10a4.48,4.48,0,0,1-4.39,3,4.88,4.88,0,0,1-4.83-5.17,4.74,4.74,0,1,1,9.44,0,4.35,4.35,0,0,1-.11.9h-7.2A2.75,2.75,0,0,0,322.43,10ZM317.48,7h5.4a2.72,2.72,0,0,0-2.81-2.48A2.68,2.68,0,0,0,317.48,7Z"/><path d="M265.66,10.65a1.13,1.13,0,0,0,.1.57.41.41,0,0,0,.39.18h.22a1.67,1.67,0,0,0,.29,0v1.52l-.28.08-.36.09-.36.06-.31,0a1.92,1.92,0,0,1-1.06-.27,1.34,1.34,0,0,1-.54-.94,3.66,3.66,0,0,1-1.53.92,5.76,5.76,0,0,1-1.74.29,3.84,3.84,0,0,1-1.22-.19,3.24,3.24,0,0,1-1-.53,2.58,2.58,0,0,1-.71-.91,3,3,0,0,1-.26-1.28,3,3,0,0,1,.32-1.5,2.49,2.49,0,0,1,.83-.9,3.55,3.55,0,0,1,1.17-.47,11.55,11.55,0,0,1,1.31-.22A8.76,8.76,0,0,1,262,7a4.4,4.4,0,0,0,.9-.16,1.4,1.4,0,0,0,.62-.36,1,1,0,0,0,.23-.72,1.15,1.15,0,0,0-.19-.69,1.26,1.26,0,0,0-.48-.41,2,2,0,0,0-.62-.2,5.18,5.18,0,0,0-.66,0,2.49,2.49,0,0,0-1.44.38A1.51,1.51,0,0,0,259.68,6H257.6A3.51,3.51,0,0,1,258,4.36a3,3,0,0,1,1-1,3.7,3.7,0,0,1,1.34-.54,7.63,7.63,0,0,1,1.53-.16,6.24,6.24,0,0,1,1.36.16,3.78,3.78,0,0,1,1.22.5,2.81,2.81,0,0,1,.86.89,2.56,2.56,0,0,1,.33,1.34Zm-2.08-2.77a2.42,2.42,0,0,1-1.16.39c-.47.05-.93.11-1.39.2a4.64,4.64,0,0,0-.64.17,1.84,1.84,0,0,0-.54.28,1.32,1.32,0,0,0-.38.49,1.69,1.69,0,0,0-.13.72.9.9,0,0,0,.2.61,1.43,1.43,0,0,0,.48.4,2.37,2.37,0,0,0,.62.2,3.49,3.49,0,0,0,.61.06,3.52,3.52,0,0,0,.75-.1,2.18,2.18,0,0,0,.75-.33,2.07,2.07,0,0,0,.6-.58,1.62,1.62,0,0,0,.23-.88Z"/><path d="M287.66,10.65a1.26,1.26,0,0,0,.1.57.41.41,0,0,0,.39.18h.22a1.55,1.55,0,0,0,.29,0v1.52l-.28.08a3.58,3.58,0,0,1-.35.09l-.37.06-.31,0a1.88,1.88,0,0,1-1.05-.27,1.35,1.35,0,0,1-.55-.94,3.68,3.68,0,0,1-1.52.92,5.82,5.82,0,0,1-1.74.29,3.86,3.86,0,0,1-1.23-.19,3.35,3.35,0,0,1-1-.53,2.69,2.69,0,0,1-.71-.91,3,3,0,0,1-.26-1.28,3.15,3.15,0,0,1,.32-1.5,2.43,2.43,0,0,1,.84-.9,3.41,3.41,0,0,1,1.16-.47,11.55,11.55,0,0,1,1.31-.22A8.76,8.76,0,0,1,284,7a4.4,4.4,0,0,0,.9-.16,1.34,1.34,0,0,0,.62-.36,1,1,0,0,0,.23-.72,1.15,1.15,0,0,0-.19-.69,1.23,1.23,0,0,0-.47-.41,2.11,2.11,0,0,0-.63-.2,5.07,5.07,0,0,0-.66,0,2.49,2.49,0,0,0-1.44.38A1.54,1.54,0,0,0,281.68,6h-2.07A3.39,3.39,0,0,1,280,4.36a3,3,0,0,1,1-1,3.7,3.7,0,0,1,1.34-.54,7.79,7.79,0,0,1,1.53-.16,6.33,6.33,0,0,1,1.37.16,3.73,3.73,0,0,1,1.21.5,2.61,2.61,0,0,1,.86.89,2.56,2.56,0,0,1,.33,1.34Zm-2.08-2.77a2.42,2.42,0,0,1-1.16.39c-.46.05-.93.11-1.39.2a4.16,4.16,0,0,0-.63.17,1.9,1.9,0,0,0-.55.28,1.44,1.44,0,0,0-.38.49,1.69,1.69,0,0,0-.13.72.9.9,0,0,0,.2.61,1.43,1.43,0,0,0,.48.4,2.5,2.5,0,0,0,.62.2,3.58,3.58,0,0,0,.61.06,3.52,3.52,0,0,0,.75-.1,2.23,2.23,0,0,0,.76-.33,2.17,2.17,0,0,0,.59-.58,1.54,1.54,0,0,0,.23-.88Z"/></g></g></svg>